<svg xmlns="http://www.w3.org/2000/svg" viewBox="0 0 1000 1000" preserveAspectRatio="xMidYMid slice"><defs><radialGradient id="mw" cx="0.5" cy="0.5" r="0.5"><stop offset="0" stop-color="#9aa8ff" stop-opacity="0.11"/><stop offset="1" stop-color="#9aa8ff" stop-opacity="0"/></radialGradient></defs><g transform="rotate(-28 500 420)"><ellipse cx="500" cy="420" rx="760" ry="120" fill="url(#mw)"/><ellipse cx="420" cy="410" rx="380" ry="60" fill="url(#mw)"/></g><circle cx="986.4" cy="184.1" r="0.5" fill="#dfe4ff" opacity="0.32299999999999995"/><circle cx="651.4" cy="374.3" r="0.6" fill="#dfe4ff" opacity="0.23600000000000002"/><circle cx="154.9" cy="626.2" r="0.7" fill="#dfe4ff" opacity="0.348"/><circle cx="745.9" cy="233.6" r="0.8" fill="#dfe4ff" opacity="0.43200000000000005"/><circle cx="63.6" cy="668.9" r="0.7" fill="#dfe4ff" opacity="0.248"/><circle cx="590.5" cy="321.3" r="0.7" fill="#dfe4ff" opacity="0.195"/><circle cx="739" cy="257.4" r="0.7" fill="#dfe4ff" opacity="0.34700000000000003"/><circle cx="902.5" cy="258.8" r="0.7" fill="#dfe4ff" opacity="0.409"/><circle cx="515.8" cy="462" r="0.6" fill="#dfe4ff" opacity="0.214"/><circle cx="325.1" cy="508.2" r="0.5" fill="#dfe4ff" opacity="0.436"/><circle cx="610.7" cy="362.5" r="0.4" fill="#dfe4ff" opacity="0.29"/><circle cx="461.8" cy="498.9" r="0.4" fill="#dfe4ff" opacity="0.447"/><circle cx="750.1" cy="321" r="0.7" fill="#dfe4ff" opacity="0.284"/><circle cx="727.8" cy="274.9" r="0.6" fill="#dfe4ff" opacity="0.23600000000000002"/><circle cx="307.1" cy="516.4" r="0.7" fill="#dfe4ff" opacity="0.26"/><circle cx="597.2" cy="384.4" r="0.5" fill="#dfe4ff" opacity="0.35600000000000004"/><circle cx="153.5" cy="577.6" r="0.5" fill="#dfe4ff" opacity="0.3"/><circle cx="381.9" cy="446.4" r="0.7" fill="#dfe4ff" opacity="0.205"/><circle cx="469.9" cy="470.4" r="0.6" fill="#dfe4ff" opacity="0.413"/><circle cx="633.1" cy="284.6" r="0.7" fill="#dfe4ff" opacity="0.26899999999999996"/><circle cx="390.4" cy="523.6" r="0.8" fill="#dfe4ff" opacity="0.397"/><circle cx="903.8" cy="161.1" r="0.5" fill="#dfe4ff" opacity="0.276"/><circle cx="866.4" cy="255.5" r="0.4" fill="#dfe4ff" opacity="0.195"/><circle cx="650.8" cy="293.1" r="0.7" fill="#dfe4ff" opacity="0.44"/><circle cx="138.6" cy="583.7" r="0.6" fill="#dfe4ff" opacity="0.282"/><circle cx="939.8" cy="162" r="0.7" fill="#dfe4ff" opacity="0.441"/><circle cx="825.7" cy="285.2" r="0.6" fill="#dfe4ff" opacity="0.436"/><circle cx="94.7" cy="687.1" r="0.4" fill="#dfe4ff" opacity="0.183"/><circle cx="128.5" cy="571.1" r="0.5" fill="#dfe4ff" opacity="0.244"/><circle cx="638.5" cy="299.4" r="0.4" fill="#dfe4ff" opacity="0.266"/><circle cx="29" cy="675.1" r="0.6" fill="#dfe4ff" opacity="0.449"/><circle cx="572.8" cy="339.9" r="0.7" fill="#dfe4ff" opacity="0.207"/><circle cx="771.8" cy="243" r="0.5" fill="#dfe4ff" opacity="0.305"/><circle cx="915.9" cy="222.4" r="0.7" fill="#dfe4ff" opacity="0.325"/><circle cx="997.8" cy="155.6" r="0.6" fill="#dfe4ff" opacity="0.305"/><circle cx="967.6" cy="146.8" r="0.6" fill="#dfe4ff" opacity="0.23800000000000002"/><circle cx="965.2" cy="152.7" r="0.5" fill="#dfe4ff" opacity="0.28800000000000003"/><circle cx="238.8" cy="575.1" r="0.4" fill="#dfe4ff" opacity="0.364"/><circle cx="451.3" cy="407.6" r="0.7" fill="#dfe4ff" opacity="0.414"/><circle cx="795" cy="289.6" r="0.5" fill="#dfe4ff" opacity="0.364"/><circle cx="687.8" cy="279.1" r="0.5" fill="#dfe4ff" opacity="0.442"/><circle cx="972.7" cy="130.6" r="0.4" fill="#dfe4ff" opacity="0.364"/><circle cx="491.1" cy="426.7" r="0.5" fill="#dfe4ff" opacity="0.392"/><circle cx="654.2" cy="290.9" r="0.6" fill="#dfe4ff" opacity="0.161"/><circle cx="181.1" cy="578" r="0.7" fill="#dfe4ff" opacity="0.257"/><circle cx="329.6" cy="449.7" r="0.7" fill="#dfe4ff" opacity="0.182"/><circle cx="686.8" cy="318.1" r="0.7" fill="#dfe4ff" opacity="0.249"/><circle cx="946.3" cy="199.2" r="0.8" fill="#dfe4ff" opacity="0.28"/><circle cx="639.7" cy="399.5" r="0.4" fill="#dfe4ff" opacity="0.4"/><circle cx="346.5" cy="493" r="0.5" fill="#dfe4ff" opacity="0.27399999999999997"/><circle cx="291.2" cy="525.3" r="0.7" fill="#dfe4ff" opacity="0.44"/><circle cx="798.2" cy="239.7" r="0.6" fill="#dfe4ff" opacity="0.258"/><circle cx="272.7" cy="493.6" r="0.8" fill="#dfe4ff" opacity="0.43700000000000006"/><circle cx="588.2" cy="408.1" r="0.6" fill="#dfe4ff" opacity="0.429"/><circle cx="47.3" cy="653.5" r="0.6" fill="#dfe4ff" opacity="0.19399999999999998"/><circle cx="418.9" cy="454.7" r="0.5" fill="#dfe4ff" opacity="0.36700000000000005"/><circle cx="944.3" cy="203.3" r="0.8" fill="#dfe4ff" opacity="0.368"/><circle cx="245.4" cy="569.9" r="0.6" fill="#dfe4ff" opacity="0.175"/><circle cx="963.5" cy="136.2" r="0.5" fill="#dfe4ff" opacity="0.231"/><circle cx="236.6" cy="520.8" r="0.4" fill="#dfe4ff" opacity="0.446"/><circle cx="854.1" cy="266.2" r="0.5" fill="#dfe4ff" opacity="0.37200000000000005"/><circle cx="66.4" cy="611.4" r="0.6" fill="#dfe4ff" opacity="0.396"/><circle cx="321.8" cy="566.5" r="0.4" fill="#dfe4ff" opacity="0.297"/><circle cx="240.7" cy="504.1" r="0.8" fill="#dfe4ff" opacity="0.17300000000000001"/><circle cx="900.9" cy="169.8" r="0.6" fill="#dfe4ff" opacity="0.231"/><circle cx="935.2" cy="228.8" r="0.7" fill="#dfe4ff" opacity="0.235"/><circle cx="856.4" cy="228.4" r="0.4" fill="#dfe4ff" opacity="0.418"/><circle cx="266.2" cy="568.6" r="0.7" fill="#dfe4ff" opacity="0.368"/><circle cx="953.7" cy="203.9" r="0.4" fill="#dfe4ff" opacity="0.368"/><circle cx="713.7" cy="269.6" r="0.5" fill="#dfe4ff" opacity="0.428"/><circle cx="555.4" cy="367.6" r="0.7" fill="#dfe4ff" opacity="0.349"/><circle cx="746" cy="242.7" r="0.5" fill="#dfe4ff" opacity="0.43"/><circle cx="484.2" cy="403.2" r="0.4" fill="#dfe4ff" opacity="0.23199999999999998"/><circle cx="35.8" cy="710.5" r="0.5" fill="#dfe4ff" opacity="0.218"/><circle cx="309.1" cy="542.3" r="0.6" fill="#dfe4ff" opacity="0.235"/><circle cx="963.5" cy="203.1" r="0.7" fill="#dfe4ff" opacity="0.22899999999999998"/><circle cx="240.1" cy="538.6" r="0.6" fill="#dfe4ff" opacity="0.32799999999999996"/><circle cx="529.1" cy="377.2" r="0.4" fill="#dfe4ff" opacity="0.268"/><circle cx="92" cy="619.7" r="0.7" fill="#dfe4ff" opacity="0.385"/><circle cx="689.1" cy="263.5" r="0.5" fill="#dfe4ff" opacity="0.375"/><circle cx="800.4" cy="275.7" r="0.4" fill="#dfe4ff" opacity="0.413"/><circle cx="607.9" cy="376.9" r="0.5" fill="#dfe4ff" opacity="0.414"/><circle cx="297.8" cy="538.4" r="0.7" fill="#dfe4ff" opacity="0.28300000000000003"/><circle cx="743" cy="340.1" r="0.4" fill="#dfe4ff" opacity="0.345"/><circle cx="205.3" cy="530.5" r="0.5" fill="#dfe4ff" opacity="0.23800000000000002"/><circle cx="19.6" cy="722.7" r="0.7" fill="#dfe4ff" opacity="0.16"/><circle cx="880.3" cy="179.8" r="0.8" fill="#dfe4ff" opacity="0.35"/><circle cx="30.3" cy="670.5" r="0.8" fill="#dfe4ff" opacity="0.16899999999999998"/><circle cx="273.8" cy="545.6" r="0.4" fill="#dfe4ff" opacity="0.43200000000000005"/><circle cx="324.6" cy="504.8" r="0.5" fill="#dfe4ff" opacity="0.203"/><circle cx="355.3" cy="481" r="0.4" fill="#dfe4ff" opacity="0.38299999999999995"/><circle cx="277.5" cy="488.2" r="0.8" fill="#dfe4ff" opacity="0.278"/><circle cx="439.9" cy="472.4" r="0.7" fill="#dfe4ff" opacity="0.172"/><circle cx="74.7" cy="625.8" r="0.5" fill="#dfe4ff" opacity="0.161"/><circle cx="954" cy="229.5" r="0.7" fill="#dfe4ff" opacity="0.156"/><circle cx="518.6" cy="386.6" r="0.6" fill="#dfe4ff" opacity="0.317"/><circle cx="835.4" cy="284.3" r="0.6" fill="#dfe4ff" opacity="0.332"/><circle cx="495.3" cy="378.2" r="0.8" fill="#dfe4ff" opacity="0.27699999999999997"/><circle cx="487.3" cy="476.7" r="0.5" fill="#dfe4ff" opacity="0.449"/><circle cx="50.3" cy="673.2" r="0.7" fill="#dfe4ff" opacity="0.251"/><circle cx="971.3" cy="200.7" r="0.4" fill="#dfe4ff" opacity="0.268"/><circle cx="309.4" cy="493.2" r="0.7" fill="#dfe4ff" opacity="0.299"/><circle cx="604.4" cy="348.4" r="0.5" fill="#dfe4ff" opacity="0.42700000000000005"/><circle cx="488.3" cy="435.3" r="0.8" fill="#dfe4ff" opacity="0.306"/><circle cx="48.1" cy="661.3" r="0.8" fill="#dfe4ff" opacity="0.33399999999999996"/><circle cx="538.2" cy="358.9" r="0.8" fill="#dfe4ff" opacity="0.242"/><circle cx="808.1" cy="268.2" r="0.5" fill="#dfe4ff" opacity="0.196"/><circle cx="694.6" cy="326.7" r="0.7" fill="#dfe4ff" opacity="0.23"/><circle cx="930.4" cy="154.9" r="0.5" fill="#dfe4ff" opacity="0.22399999999999998"/><circle cx="177" cy="596.7" r="0.5" fill="#dfe4ff" opacity="0.32299999999999995"/><circle cx="404.8" cy="431.8" r="0.7" fill="#dfe4ff" opacity="0.41600000000000004"/><circle cx="636.3" cy="357" r="0.6" fill="#dfe4ff" opacity="0.35200000000000004"/><circle cx="175.9" cy="613.5" r="0.4" fill="#dfe4ff" opacity="0.44299999999999995"/><circle cx="163" cy="554.2" r="0.4" fill="#dfe4ff" opacity="0.28600000000000003"/><circle cx="902.2" cy="190.6" r="0.6" fill="#dfe4ff" opacity="0.284"/><circle cx="957.3" cy="193.8" r="0.7" fill="#dfe4ff" opacity="0.40299999999999997"/><circle cx="946.7" cy="132.2" r="0.6" fill="#dfe4ff" opacity="0.397"/><circle cx="404.8" cy="454.2" r="0.5" fill="#dfe4ff" opacity="0.231"/><circle cx="608" cy="395.3" r="0.4" fill="#dfe4ff" opacity="0.24600000000000002"/><circle cx="682.6" cy="308.4" r="0.5" fill="#dfe4ff" opacity="0.28800000000000003"/><circle cx="575.2" cy="327.3" r="0.4" fill="#dfe4ff" opacity="0.305"/><circle cx="749.5" cy="282.1" r="0.5" fill="#dfe4ff" opacity="0.39899999999999997"/><circle cx="640.8" cy="400.2" r="0.4" fill="#dfe4ff" opacity="0.39"/><circle cx="130.1" cy="633.9" r="0.5" fill="#dfe4ff" opacity="0.414"/><circle cx="626.6" cy="345.4" r="0.5" fill="#dfe4ff" opacity="0.222"/><circle cx="996.7" cy="202.9" r="0.4" fill="#dfe4ff" opacity="0.409"/><circle cx="752.4" cy="259.8" r="0.6" fill="#dfe4ff" opacity="0.185"/><circle cx="743.1" cy="254.6" r="0.6" fill="#dfe4ff" opacity="0.34700000000000003"/><circle cx="884.3" cy="252.3" r="0.8" fill="#dfe4ff" opacity="0.332"/><circle cx="567.3" cy="370.6" r="0.6" fill="#dfe4ff" opacity="0.332"/><circle cx="466.7" cy="408.3" r="0.6" fill="#dfe4ff" opacity="0.42100000000000004"/><circle cx="23.2" cy="625" r="0.6" fill="#dfe4ff" opacity="0.345"/><circle cx="706.4" cy="307.7" r="0.4" fill="#dfe4ff" opacity="0.385"/><circle cx="531.8" cy="391.8" r="0.4" fill="#dfe4ff" opacity="0.35"/><circle cx="256.6" cy="543.7" r="0.4" fill="#dfe4ff" opacity="0.42"/><circle cx="30.9" cy="648.8" r="0.5" fill="#dfe4ff" opacity="0.172"/><circle cx="520.9" cy="400.9" r="0.4" fill="#dfe4ff" opacity="0.192"/><circle cx="417.1" cy="487.7" r="0.4" fill="#dfe4ff" opacity="0.34299999999999997"/><circle cx="397.5" cy="416.2" r="0.5" fill="#dfe4ff" opacity="0.34"/><circle cx="652.3" cy="363.6" r="0.6" fill="#dfe4ff" opacity="0.198"/><circle cx="926.4" cy="210.6" r="0.4" fill="#dfe4ff" opacity="0.40399999999999997"/><circle cx="390.1" cy="530.4" r="0.7" fill="#dfe4ff" opacity="0.368"/><circle cx="624" cy="414.9" r="0.5" fill="#dfe4ff" opacity="0.313"/><circle cx="672.1" cy="340.8" r="0.8" fill="#dfe4ff" opacity="0.395"/><circle cx="785.2" cy="317.7" r="0.6" fill="#dfe4ff" opacity="0.42100000000000004"/><circle cx="511.1" cy="472.9" r="0.5" fill="#dfe4ff" opacity="0.369"/><circle cx="103.6" cy="660.3" r="0.6" fill="#dfe4ff" opacity="0.304"/><circle cx="343.6" cy="456.5" r="0.7" fill="#dfe4ff" opacity="0.32299999999999995"/><circle cx="175.7" cy="542.8" r="0.5" fill="#dfe4ff" opacity="0.376"/><circle cx="887.5" cy="177.5" r="0.5" fill="#dfe4ff" opacity="0.313"/><circle cx="927.2" cy="171.7" r="0.6" fill="#dfe4ff" opacity="0.295"/><circle cx="807.2" cy="254.1" r="0.6" fill="#dfe4ff" opacity="0.278"/><circle cx="90" cy="659.6" r="0.5" fill="#dfe4ff" opacity="0.35600000000000004"/><circle cx="831.6" cy="214.8" r="0.4" fill="#dfe4ff" opacity="0.21100000000000002"/><circle cx="593.7" cy="338.2" r="0.8" fill="#dfe4ff" opacity="0.19399999999999998"/><circle cx="396.3" cy="443.1" r="0.5" fill="#dfe4ff" opacity="0.287"/><circle cx="782.2" cy="242.8" r="0.8" fill="#dfe4ff" opacity="0.401"/><circle cx="887.9" cy="174" r="0.5" fill="#dfe4ff" opacity="0.43799999999999994"/><circle cx="353.6" cy="514.4" r="0.4" fill="#dfe4ff" opacity="0.16"/><circle cx="617" cy="390.6" r="0.5" fill="#dfe4ff" opacity="0.314"/><circle cx="8.4" cy="643.1" r="0.5" fill="#dfe4ff" opacity="0.364"/><circle cx="942.2" cy="202.9" r="0.4" fill="#dfe4ff" opacity="0.42100000000000004"/><circle cx="274.2" cy="503.7" r="0.7" fill="#dfe4ff" opacity="0.261"/><circle cx="439.7" cy="92.6" r="1" fill="#f4f6ff" opacity="0.6629999999999999"/><circle cx="965.1" cy="946.8" r="0.6" fill="#f4f6ff" opacity="0.28600000000000003"/><circle cx="921.1" cy="158.6" r="0.9" fill="#f4f6ff" opacity="0.563"/><circle cx="105" cy="790.5" r="0.7" fill="#f4f6ff" opacity="0.332"/><circle cx="414.8" cy="53.4" r="0.8" fill="#f4f6ff" opacity="0.642"/><circle cx="79.7" cy="617.2" r="1.2" fill="#f4f6ff" opacity="0.217"/><circle cx="802.5" cy="970.7" r="0.8" fill="#ffe6b8" opacity="0.204"/><circle cx="774.9" cy="854.6" r="0.8" fill="#f4f6ff" opacity="0.35100000000000003"/><circle cx="867.9" cy="114.2" r="0.9" fill="#f4f6ff" opacity="0.602"/><circle cx="123.3" cy="645.9" r="0.6" fill="#f4f6ff" opacity="0.363"/><circle cx="561.4" cy="970.6" r="0.7" fill="#f4f6ff" opacity="0.139"/><circle cx="316.9" cy="166" r="1" fill="#f4f6ff" opacity="0.261"/><circle cx="797.3" cy="389.1" r="1.2" fill="#f4f6ff" opacity="0.36200000000000004"/><circle cx="981.9" cy="64.8" r="1" fill="#f4f6ff" opacity="0.5920000000000001"/><circle cx="704.8" cy="368.1" r="0.8" fill="#f4f6ff" opacity="0.5670000000000001"/><circle cx="861.7" cy="302" r="0.8" fill="#f4f6ff" opacity="0.309"/><circle cx="504.9" cy="248.5" r="0.7" fill="#f4f6ff" opacity="0.36"/><circle cx="805.6" cy="15.9" r="0.6" fill="#f4f6ff" opacity="0.46799999999999997"/><circle cx="436" cy="500.4" r="1" fill="#ffe6b8" opacity="0.239"/><circle cx="111.1" cy="199.3" r="0.8" fill="#f4f6ff" opacity="0.373"/><circle cx="398.3" cy="808" r="0.9" fill="#f4f6ff" opacity="0.41100000000000003"/><circle cx="513.9" cy="104.4" r="1.2" fill="#ffe6b8" opacity="0.6859999999999999"/><circle cx="239.7" cy="949.6" r="1" fill="#f4f6ff" opacity="0.254"/><circle cx="375.6" cy="881.7" r="1.2" fill="#f4f6ff" opacity="0.25"/><circle cx="856.4" cy="10.4" r="1" fill="#f4f6ff" opacity="0.564"/><circle cx="864.2" cy="693.8" r="0.7" fill="#f4f6ff" opacity="0.171"/><circle cx="527.5" cy="35.9" r="0.6" fill="#f4f6ff" opacity="0.531"/><circle cx="173.8" cy="1.7" r="0.6" fill="#f4f6ff" opacity="0.385"/><circle cx="157.3" cy="962.2" r="0.6" fill="#f4f6ff" opacity="0.214"/><circle cx="82.7" cy="579.6" r="0.9" fill="#f4f6ff" opacity="0.209"/><circle cx="347.3" cy="501.4" r="1" fill="#f4f6ff" opacity="0.425"/><circle cx="394.2" cy="175.2" r="1" fill="#f4f6ff" opacity="0.634"/><circle cx="468.1" cy="555.3" r="0.6" fill="#f4f6ff" opacity="0.29"/><circle cx="58" cy="999.9" r="1.2" fill="#f4f6ff" opacity="0.258"/><circle cx="155.1" cy="182.9" r="0.6" fill="#f4f6ff" opacity="0.513"/><circle cx="20.3" cy="635.1" r="0.6" fill="#f4f6ff" opacity="0.371"/><circle cx="898" cy="532.5" r="1" fill="#ffe6b8" opacity="0.358"/><circle cx="96.6" cy="848.4" r="1.7" fill="#ffe6b8" opacity="0.8740000000000001"/><circle cx="648.2" cy="870.9" r="2.1" fill="#f4f6ff" opacity="0.8170000000000001"/><circle cx="417.4" cy="280.1" r="0.8" fill="#f4f6ff" opacity="0.628"/><circle cx="613.3" cy="465.7" r="1.1" fill="#f4f6ff" opacity="0.306"/><circle cx="241.2" cy="520.7" r="1.1" fill="#f4f6ff" opacity="0.502"/><circle cx="662.6" cy="816.6" r="1.1" fill="#f4f6ff" opacity="0.382"/><circle cx="182.5" cy="357.7" r="0.5" fill="#f4f6ff" opacity="0.35100000000000003"/><circle cx="15.2" cy="416.2" r="1.1" fill="#f4f6ff" opacity="0.45799999999999996"/><circle cx="152" cy="47.4" r="0.6" fill="#f4f6ff" opacity="0.7170000000000001"/><circle cx="131.2" cy="583.7" r="0.9" fill="#ffe6b8" opacity="0.42700000000000005"/><circle cx="555.9" cy="472.3" r="1" fill="#f4f6ff" opacity="0.34"/><circle cx="980.1" cy="24.8" r="0.7" fill="#f4f6ff" opacity="0.452"/><circle cx="549.8" cy="548.5" r="0.8" fill="#f4f6ff" opacity="0.24100000000000002"/><circle cx="105.9" cy="140.9" r="0.7" fill="#f4f6ff" opacity="0.626"/><circle cx="396.4" cy="358.2" r="1.2" fill="#ffe6b8" opacity="0.499"/><circle cx="162.4" cy="133.6" r="0.5" fill="#f4f6ff" opacity="0.509"/><circle cx="221.7" cy="968" r="0.6" fill="#f4f6ff" opacity="0.217"/><circle cx="840.9" cy="905.1" r="0.9" fill="#f4f6ff" opacity="0.244"/><circle cx="718" cy="4.8" r="0.6" fill="#ffe6b8" opacity="0.42200000000000004"/><circle cx="359.5" cy="144.5" r="1" fill="#f4f6ff" opacity="0.257"/><circle cx="589.7" cy="626.1" r="0.6" fill="#f4f6ff" opacity="0.39799999999999996"/><circle cx="939.9" cy="410.2" r="0.6" fill="#f4f6ff" opacity="0.485"/><circle cx="789.7" cy="400.4" r="0.7" fill="#f4f6ff" opacity="0.41100000000000003"/><circle cx="939.7" cy="47.4" r="0.9" fill="#f4f6ff" opacity="0.6709999999999999"/><circle cx="841.6" cy="969.3" r="0.6" fill="#f4f6ff" opacity="0.282"/><circle cx="564.7" cy="816" r="0.9" fill="#f4f6ff" opacity="0.281"/><circle cx="797.4" cy="135.3" r="1.1" fill="#f4f6ff" opacity="0.47600000000000003"/><circle cx="332.3" cy="947.3" r="1.1" fill="#f4f6ff" opacity="0.35600000000000004"/><circle cx="624.1" cy="384.7" r="1.1" fill="#ffe6b8" opacity="0.49"/><circle cx="706.8" cy="340.3" r="0.5" fill="#f4f6ff" opacity="0.253"/><circle cx="69" cy="297.7" r="1" fill="#ffe6b8" opacity="0.34700000000000003"/><circle cx="580.6" cy="169.5" r="0.7" fill="#f4f6ff" opacity="0.591"/><circle cx="298.8" cy="798.8" r="0.5" fill="#f4f6ff" opacity="0.258"/><circle cx="521.1" cy="676.5" r="2.3" fill="#ffe6b8" opacity="0.8759999999999999"/><circle cx="860.7" cy="336.3" r="0.6" fill="#f4f6ff" opacity="0.42700000000000005"/><circle cx="956.8" cy="753.3" r="1.1" fill="#f4f6ff" opacity="0.423"/><circle cx="760.7" cy="83" r="0.9" fill="#f4f6ff" opacity="0.608"/><circle cx="723" cy="236.1" r="0.6" fill="#f4f6ff" opacity="0.462"/><circle cx="707.6" cy="343.4" r="0.8" fill="#ffe6b8" opacity="0.405"/><circle cx="640.1" cy="394.7" r="1.1" fill="#f4f6ff" opacity="0.584"/><circle cx="818.8" cy="6.5" r="0.8" fill="#ffe6b8" opacity="0.746"/><circle cx="46.6" cy="885.1" r="1.6" fill="#f4f6ff" opacity="0.887"/><circle cx="334.9" cy="50" r="1.1" fill="#f4f6ff" opacity="0.72"/><circle cx="456.6" cy="3" r="1.1" fill="#f4f6ff" opacity="0.42"/><circle cx="139.7" cy="717.4" r="1.1" fill="#f4f6ff" opacity="0.37200000000000005"/><circle cx="766.8" cy="2.1" r="0.6" fill="#ffe6b8" opacity="0.445"/><circle cx="133" cy="781.9" r="0.7" fill="#f4f6ff" opacity="0.311"/><circle cx="682.1" cy="117.8" r="0.8" fill="#f4f6ff" opacity="0.273"/><circle cx="753.1" cy="36.8" r="1" fill="#f4f6ff" opacity="0.685"/><circle cx="283.2" cy="556.9" r="0.7" fill="#f4f6ff" opacity="0.38799999999999996"/><circle cx="194.7" cy="170.7" r="0.7" fill="#f4f6ff" opacity="0.499"/><circle cx="907.6" cy="267.8" r="1" fill="#f4f6ff" opacity="0.627"/><circle cx="120.7" cy="738.4" r="0.6" fill="#f4f6ff" opacity="0.191"/><circle cx="766.1" cy="627.7" r="0.6" fill="#f4f6ff" opacity="0.276"/><circle cx="914.2" cy="32.2" r="1" fill="#f4f6ff" opacity="0.447"/><circle cx="966.6" cy="221.9" r="0.8" fill="#f4f6ff" opacity="0.409"/><circle cx="766.6" cy="103.6" r="0.6" fill="#f4f6ff" opacity="0.603"/><circle cx="866.2" cy="81.8" r="0.8" fill="#f4f6ff" opacity="0.303"/><circle cx="150.2" cy="14.8" r="0.8" fill="#f4f6ff" opacity="0.52"/><circle cx="925.7" cy="137.1" r="0.7" fill="#f4f6ff" opacity="0.54"/><circle cx="470.9" cy="328" r="0.8" fill="#f4f6ff" opacity="0.345"/><circle cx="485.5" cy="29.1" r="0.5" fill="#ffe6b8" opacity="0.374"/><circle cx="949.4" cy="388.9" r="1" fill="#f4f6ff" opacity="0.29"/><circle cx="137.3" cy="206.7" r="0.6" fill="#f4f6ff" opacity="0.5710000000000001"/><circle cx="25.4" cy="380.4" r="0.7" fill="#ffe6b8" opacity="0.47"/><circle cx="611.7" cy="383.5" r="1.2" fill="#f4f6ff" opacity="0.247"/><circle cx="834.4" cy="14.4" r="1.1" fill="#f4f6ff" opacity="0.512"/><circle cx="354.6" cy="249.7" r="1.1" fill="#f4f6ff" opacity="0.226"/><circle cx="552" cy="84" r="2" fill="#f4f6ff" opacity="0.929"/><circle cx="214.2" cy="21.3" r="1.1" fill="#f4f6ff" opacity="0.625"/><circle cx="653.1" cy="515.8" r="1.1" fill="#f4f6ff" opacity="0.182"/><circle cx="909.5" cy="5.7" r="1.1" fill="#f4f6ff" opacity="0.7440000000000001"/><circle cx="383.7" cy="511.5" r="1.1" fill="#f4f6ff" opacity="0.271"/><circle cx="203.7" cy="384.2" r="0.5" fill="#f4f6ff" opacity="0.34600000000000003"/><circle cx="990.6" cy="756" r="0.7" fill="#f4f6ff" opacity="0.15"/><circle cx="952.8" cy="925" r="0.6" fill="#f4f6ff" opacity="0.134"/><circle cx="507.8" cy="40.8" r="1.1" fill="#f4f6ff" opacity="0.509"/><circle cx="453.1" cy="831.2" r="1.1" fill="#f4f6ff" opacity="0.397"/><circle cx="144.2" cy="504.8" r="1.1" fill="#ffe6b8" opacity="0.361"/><circle cx="757.1" cy="607.1" r="0.7" fill="#f4f6ff" opacity="0.385"/><circle cx="572" cy="17.1" r="0.7" fill="#f4f6ff" opacity="0.6809999999999999"/><circle cx="882" cy="643.3" r="0.8" fill="#f4f6ff" opacity="0.48100000000000004"/><circle cx="660.1" cy="172.1" r="0.8" fill="#f4f6ff" opacity="0.402"/><circle cx="81.6" cy="395" r="1" fill="#f4f6ff" opacity="0.5379999999999999"/><circle cx="452.2" cy="366.2" r="1.1" fill="#f4f6ff" opacity="0.55"/><circle cx="602.8" cy="888.7" r="1.1" fill="#f4f6ff" opacity="0.161"/><circle cx="433.3" cy="661.3" r="1.2" fill="#f4f6ff" opacity="0.326"/><circle cx="600.2" cy="805.5" r="0.9" fill="#f4f6ff" opacity="0.37799999999999995"/><circle cx="384.1" cy="545.3" r="0.7" fill="#f4f6ff" opacity="0.489"/><circle cx="129.7" cy="292.3" r="0.9" fill="#ffe6b8" opacity="0.24"/><circle cx="369.4" cy="75.2" r="0.8" fill="#f4f6ff" opacity="0.325"/><circle cx="391.9" cy="764.2" r="0.9" fill="#ffe6b8" opacity="0.27399999999999997"/><circle cx="656.1" cy="35.5" r="1.1" fill="#f4f6ff" opacity="0.27"/><circle cx="650.4" cy="643.7" r="0.9" fill="#f4f6ff" opacity="0.285"/><circle cx="609.7" cy="751.4" r="1.1" fill="#ffe6b8" opacity="0.18"/><circle cx="493" cy="176.9" r="2" fill="#f4f6ff" opacity="0.963"/><circle cx="865" cy="955.3" r="0.7" fill="#f4f6ff" opacity="0.312"/><circle cx="360.2" cy="249.3" r="2" fill="#f4f6ff" opacity="0.8859999999999999"/><circle cx="317.8" cy="304.1" r="1" fill="#f4f6ff" opacity="0.3"/><circle cx="512.6" cy="851.8" r="1" fill="#f4f6ff" opacity="0.184"/><circle cx="735" cy="597.1" r="0.8" fill="#f4f6ff" opacity="0.23199999999999998"/><circle cx="857.9" cy="849.4" r="1.2" fill="#ffe6b8" opacity="0.23600000000000002"/><circle cx="29.6" cy="484.3" r="0.5" fill="#ffe6b8" opacity="0.44299999999999995"/><circle cx="310.6" cy="887.6" r="1.2" fill="#f4f6ff" opacity="0.281"/><circle cx="497.9" cy="772.1" r="1" fill="#f4f6ff" opacity="0.271"/><circle cx="605.5" cy="927" r="0.5" fill="#f4f6ff" opacity="0.18600000000000003"/><circle cx="565.1" cy="656.4" r="1.1" fill="#f4f6ff" opacity="0.433"/><circle cx="737.4" cy="799.5" r="1.2" fill="#f4f6ff" opacity="0.34299999999999997"/><circle cx="836.9" cy="339.9" r="0.6" fill="#f4f6ff" opacity="0.348"/><circle cx="448.9" cy="2.8" r="0.7" fill="#f4f6ff" opacity="0.266"/><circle cx="503.3" cy="135.5" r="1" fill="#f4f6ff" opacity="0.38799999999999996"/><circle cx="437.2" cy="778" r="1" fill="#f4f6ff" opacity="0.369"/><circle cx="392.1" cy="551.9" r="1.9" fill="#f4f6ff" opacity="0.8240000000000001"/><circle cx="202.9" cy="997.9" r="1" fill="#f4f6ff" opacity="0.298"/><circle cx="218.9" cy="844.8" r="0.8" fill="#f4f6ff" opacity="0.163"/><circle cx="712.6" cy="892.6" r="0.6" fill="#ffe6b8" opacity="0.261"/><circle cx="829.3" cy="312.4" r="0.9" fill="#ffe6b8" opacity="0.502"/><circle cx="296.5" cy="556.4" r="0.9" fill="#ffe6b8" opacity="0.217"/><circle cx="482.5" cy="672.2" r="1" fill="#f4f6ff" opacity="0.41700000000000004"/><circle cx="453" cy="68.2" r="0.8" fill="#f4f6ff" opacity="0.33"/><circle cx="470.5" cy="900.1" r="1" fill="#f4f6ff" opacity="0.35100000000000003"/><circle cx="483" cy="690.1" r="0.8" fill="#f4f6ff" opacity="0.196"/><circle cx="622.1" cy="119" r="0.9" fill="#f4f6ff" opacity="0.644"/><circle cx="124.5" cy="239.2" r="0.8" fill="#f4f6ff" opacity="0.49200000000000005"/><circle cx="487.2" cy="908.3" r="0.8" fill="#ffe6b8" opacity="0.305"/><circle cx="610.7" cy="126.2" r="1.1" fill="#f4f6ff" opacity="0.266"/><circle cx="248.2" cy="312" r="1.2" fill="#f4f6ff" opacity="0.6"/><circle cx="822.4" cy="918.8" r="1.7" fill="#f4f6ff" opacity="0.897"/><circle cx="656.7" cy="601.1" r="0.9" fill="#f4f6ff" opacity="0.395"/><circle cx="457.2" cy="766.6" r="1" fill="#f4f6ff" opacity="0.336"/><circle cx="540.5" cy="14" r="0.9" fill="#ffe6b8" opacity="0.315"/><circle cx="387" cy="223.6" r="0.6" fill="#f4f6ff" opacity="0.36200000000000004"/><circle cx="680" cy="12.2" r="0.9" fill="#ffe6b8" opacity="0.41"/><circle cx="625.9" cy="946.3" r="1.2" fill="#f4f6ff" opacity="0.257"/><circle cx="97.9" cy="161.4" r="1" fill="#f4f6ff" opacity="0.526"/><circle cx="580.7" cy="169.6" r="0.8" fill="#f4f6ff" opacity="0.667"/><circle cx="62.9" cy="858.5" r="0.5" fill="#f4f6ff" opacity="0.265"/><circle cx="504.9" cy="22.9" r="0.7" fill="#ffe6b8" opacity="0.251"/><circle cx="350.3" cy="85.8" r="0.9" fill="#f4f6ff" opacity="0.28300000000000003"/><circle cx="328.9" cy="952.8" r="1" fill="#f4f6ff" opacity="0.312"/><circle cx="559.5" cy="965.6" r="1.2" fill="#f4f6ff" opacity="0.154"/><circle cx="288.4" cy="838.7" r="0.9" fill="#f4f6ff" opacity="0.21600000000000003"/><circle cx="533.3" cy="300.2" r="1.1" fill="#f4f6ff" opacity="0.305"/><circle cx="22.2" cy="5.3" r="1.1" fill="#f4f6ff" opacity="0.35100000000000003"/><circle cx="177.5" cy="869" r="1.1" fill="#ffe6b8" opacity="0.298"/><circle cx="61.1" cy="479.9" r="1.6" fill="#f4f6ff" opacity="0.92"/><circle cx="225.5" cy="122.6" r="1.1" fill="#f4f6ff" opacity="0.425"/><circle cx="881.7" cy="99.4" r="0.8" fill="#f4f6ff" opacity="0.674"/><circle cx="747.2" cy="475.9" r="0.7" fill="#f4f6ff" opacity="0.43799999999999994"/><circle cx="944.1" cy="570.1" r="0.9" fill="#f4f6ff" opacity="0.37799999999999995"/><circle cx="447.6" cy="524.7" r="1.2" fill="#f4f6ff" opacity="0.354"/><circle cx="387.3" cy="857.3" r="0.6" fill="#f4f6ff" opacity="0.318"/><circle cx="52" cy="854.4" r="1.2" fill="#f4f6ff" opacity="0.35100000000000003"/><circle cx="304.2" cy="550.6" r="1.2" fill="#f4f6ff" opacity="0.3"/><circle cx="325.3" cy="72.9" r="0.6" fill="#f4f6ff" opacity="0.41600000000000004"/><circle cx="767" cy="591" r="1" fill="#f4f6ff" opacity="0.43700000000000006"/><circle cx="521.9" cy="650.7" r="1.1" fill="#ffe6b8" opacity="0.306"/><circle cx="25.5" cy="530.1" r="1" fill="#f4f6ff" opacity="0.23399999999999999"/><circle cx="313.2" cy="573.4" r="1" fill="#ffe6b8" opacity="0.51"/><circle cx="550.4" cy="214.5" r="1.1" fill="#f4f6ff" opacity="0.502"/><circle cx="489.2" cy="198.2" r="2" fill="#f4f6ff" opacity="0.885"/><circle cx="843.1" cy="512" r="1.9" fill="#f4f6ff" opacity="0.885"/><circle cx="982.1" cy="572" r="0.8" fill="#f4f6ff" opacity="0.19"/><circle cx="183.7" cy="818.2" r="1" fill="#ffe6b8" opacity="0.289"/><circle cx="7" cy="725.5" r="1.1" fill="#ffe6b8" opacity="0.215"/><circle cx="739.7" cy="572.2" r="0.5" fill="#ffe6b8" opacity="0.41700000000000004"/><circle cx="368.8" cy="709.7" r="0.8" fill="#f4f6ff" opacity="0.201"/><circle cx="707.1" cy="306.3" r="1.2" fill="#f4f6ff" opacity="0.423"/><circle cx="230.1" cy="178.2" r="1.1" fill="#ffe6b8" opacity="0.517"/><circle cx="404.8" cy="837.7" r="0.7" fill="#ffe6b8" opacity="0.35"/><circle cx="888.3" cy="558.1" r="1" fill="#f4f6ff" opacity="0.371"/><circle cx="495.8" cy="724.6" r="1" fill="#f4f6ff" opacity="0.152"/><circle cx="358.2" cy="13.7" r="0.6" fill="#f4f6ff" opacity="0.33"/><circle cx="755.8" cy="84.9" r="1.5" fill="#f4f6ff" opacity="0.946"/><circle cx="807.7" cy="46.2" r="1.2" fill="#f4f6ff" opacity="0.51"/><circle cx="61.9" cy="879.7" r="1.2" fill="#ffe6b8" opacity="0.354"/><circle cx="141.9" cy="45.6" r="0.8" fill="#f4f6ff" opacity="0.588"/><circle cx="522.2" cy="762.4" r="1.1" fill="#ffe6b8" opacity="0.16399999999999998"/><circle cx="284.3" cy="520.1" r="0.6" fill="#f4f6ff" opacity="0.251"/><circle cx="920" cy="39.2" r="0.8" fill="#f4f6ff" opacity="0.40399999999999997"/><circle cx="950.9" cy="60.7" r="1" fill="#ffe6b8" opacity="0.289"/><circle cx="892.1" cy="944.2" r="1" fill="#f4f6ff" opacity="0.138"/><circle cx="964.4" cy="61" r="1.1" fill="#f4f6ff" opacity="0.711"/><circle cx="515.2" cy="32" r="1.2" fill="#f4f6ff" opacity="0.7090000000000001"/><circle cx="405.2" cy="530.9" r="0.9" fill="#f4f6ff" opacity="0.188"/><circle cx="221.2" cy="634.6" r="0.6" fill="#f4f6ff" opacity="0.184"/><circle cx="146" cy="63.4" r="0.7" fill="#f4f6ff" opacity="0.5329999999999999"/><circle cx="213" cy="903.7" r="1" fill="#ffe6b8" opacity="0.314"/><circle cx="567.8" cy="362.9" r="1.1" fill="#f4f6ff" opacity="0.444"/><circle cx="804" cy="169.1" r="0.5" fill="#f4f6ff" opacity="0.5579999999999999"/><circle cx="502.8" cy="49.2" r="0.7" fill="#f4f6ff" opacity="0.6"/><circle cx="351.8" cy="607.2" r="1.9" fill="#f4f6ff" opacity="0.875"/><circle cx="701.4" cy="640.7" r="1.1" fill="#ffe6b8" opacity="0.302"/><circle cx="708.3" cy="613.4" r="1.2" fill="#ffe6b8" opacity="0.36"/><circle cx="371.8" cy="157.3" r="0.7" fill="#f4f6ff" opacity="0.23"/><circle cx="358.8" cy="884.6" r="0.9" fill="#f4f6ff" opacity="0.193"/><circle cx="586.2" cy="671.5" r="0.9" fill="#f4f6ff" opacity="0.24600000000000002"/><circle cx="671.2" cy="526.6" r="0.7" fill="#f4f6ff" opacity="0.342"/><circle cx="603" cy="418.1" r="1.1" fill="#f4f6ff" opacity="0.49200000000000005"/><circle cx="927.2" cy="924.1" r="0.8" fill="#f4f6ff" opacity="0.344"/><circle cx="400.8" cy="618" r="0.8" fill="#f4f6ff" opacity="0.267"/><circle cx="58.3" cy="596.3" r="1.1" fill="#f4f6ff" opacity="0.185"/><circle cx="970.9" cy="985.1" r="0.9" fill="#f4f6ff" opacity="0.2"/><circle cx="256.7" cy="21" r="0.5" fill="#f4f6ff" opacity="0.365"/><circle cx="165.7" cy="175.7" r="0.8" fill="#f4f6ff" opacity="0.617"/><circle cx="885.2" cy="748" r="0.7" fill="#f4f6ff" opacity="0.301"/><circle cx="149.6" cy="399.6" r="0.7" fill="#ffe6b8" opacity="0.547"/><circle cx="356.1" cy="284.4" r="1.1" fill="#f4f6ff" opacity="0.217"/><circle cx="749.2" cy="708.9" r="1.2" fill="#ffe6b8" opacity="0.40299999999999997"/><circle cx="901.6" cy="207" r="1.8" fill="#f4f6ff" opacity="0.84"/><circle cx="249.9" cy="624.5" r="0.6" fill="#f4f6ff" opacity="0.371"/><circle cx="408.5" cy="621.4" r="0.8" fill="#f4f6ff" opacity="0.24100000000000002"/><circle cx="435.6" cy="397.1" r="2" fill="#f4f6ff" opacity="0.8959999999999999"/><circle cx="737.3" cy="741.3" r="0.8" fill="#f4f6ff" opacity="0.24100000000000002"/><circle cx="918.7" cy="176.7" r="0.5" fill="#f4f6ff" opacity="0.648"/><circle cx="199.2" cy="873.6" r="0.7" fill="#f4f6ff" opacity="0.309"/><circle cx="56.2" cy="365.9" r="2" fill="#f4f6ff" opacity="0.816"/><circle cx="111.8" cy="850.2" r="0.8" fill="#f4f6ff" opacity="0.34299999999999997"/><circle cx="1.1" cy="484.6" r="1.2" fill="#f4f6ff" opacity="0.479"/><circle cx="605.9" cy="354.8" r="0.9" fill="#f4f6ff" opacity="0.42700000000000005"/><circle cx="682.6" cy="304" r="0.8" fill="#f4f6ff" opacity="0.536"/><circle cx="105.4" cy="635.4" r="1.7" fill="#f4f6ff" opacity="0.8220000000000001"/><circle cx="765.3" cy="484" r="1" fill="#f4f6ff" opacity="0.521"/><circle cx="151.3" cy="474.6" r="0.8" fill="#f4f6ff" opacity="0.2"/><circle cx="882.3" cy="40.8" r="0.6" fill="#f4f6ff" opacity="0.41200000000000003"/><circle cx="493.2" cy="204.4" r="0.7" fill="#f4f6ff" opacity="0.337"/><circle cx="689.4" cy="19.7" r="1.1" fill="#f4f6ff" opacity="0.376"/><circle cx="618.4" cy="85.8" r="0.9" fill="#f4f6ff" opacity="0.263"/><circle cx="537.7" cy="957.2" r="0.5" fill="#f4f6ff" opacity="0.162"/><circle cx="141.8" cy="646.1" r="0.9" fill="#f4f6ff" opacity="0.38799999999999996"/><circle cx="811.2" cy="73.1" r="0.6" fill="#f4f6ff" opacity="0.392"/><circle cx="728.2" cy="599.3" r="1.1" fill="#f4f6ff" opacity="0.174"/><circle cx="226.4" cy="60.6" r="1.7" fill="#f4f6ff" opacity="0.8390000000000001"/><circle cx="468.1" cy="2.9" r="1" fill="#ffe6b8" opacity="0.47200000000000003"/><circle cx="640.2" cy="135.4" r="0.6" fill="#f4f6ff" opacity="0.621"/><circle cx="880.2" cy="695.9" r="0.7" fill="#f4f6ff" opacity="0.37200000000000005"/><circle cx="164.6" cy="446.6" r="0.7" fill="#f4f6ff" opacity="0.561"/><circle cx="960.9" cy="1.7" r="1.2" fill="#f4f6ff" opacity="0.316"/><circle cx="632.3" cy="30.5" r="0.7" fill="#f4f6ff" opacity="0.33"/><circle cx="954.6" cy="526.7" r="0.8" fill="#ffe6b8" opacity="0.214"/><circle cx="713.3" cy="620.1" r="0.6" fill="#f4f6ff" opacity="0.41"/><circle cx="764.7" cy="882.2" r="1" fill="#f4f6ff" opacity="0.193"/><circle cx="226.8" cy="231.1" r="1.1" fill="#f4f6ff" opacity="0.26"/><circle cx="178.2" cy="215.8" r="1.8" fill="#f4f6ff" opacity="0.879"/><circle cx="446.5" cy="290.8" r="1.1" fill="#f4f6ff" opacity="0.47600000000000003"/><circle cx="326.4" cy="611.5" r="0.9" fill="#f4f6ff" opacity="0.27899999999999997"/><circle cx="446.1" cy="231.3" r="1.6" fill="#f4f6ff" opacity="0.863"/><circle cx="51.6" cy="779.9" r="1.2" fill="#f4f6ff" opacity="0.42200000000000004"/><circle cx="781.6" cy="8.9" r="0.7" fill="#f4f6ff" opacity="0.642"/><circle cx="104.1" cy="218.4" r="0.6" fill="#f4f6ff" opacity="0.366"/><circle cx="57.7" cy="99" r="1" fill="#f4f6ff" opacity="0.44299999999999995"/><circle cx="339.5" cy="870.8" r="0.6" fill="#f4f6ff" opacity="0.272"/><circle cx="173.7" cy="18.6" r="0.6" fill="#f4f6ff" opacity="0.667"/><circle cx="338.9" cy="720.1" r="1" fill="#f4f6ff" opacity="0.41600000000000004"/><circle cx="299" cy="91.4" r="1.2" fill="#f4f6ff" opacity="0.499"/><circle cx="123.8" cy="673.7" r="0.6" fill="#f4f6ff" opacity="0.231"/><circle cx="870.6" cy="778.1" r="0.6" fill="#f4f6ff" opacity="0.153"/><circle cx="888.3" cy="895.3" r="2.2" fill="#f4f6ff" opacity="0.961"/><circle cx="164.2" cy="441.6" r="1" fill="#f4f6ff" opacity="0.322"/><circle cx="918.5" cy="432.9" r="0.9" fill="#f4f6ff" opacity="0.506"/><circle cx="231.6" cy="703.5" r="1.2" fill="#f4f6ff" opacity="0.41200000000000003"/><circle cx="123.4" cy="43.6" r="0.6" fill="#ffe6b8" opacity="0.528"/><circle cx="254.2" cy="419" r="1" fill="#f4f6ff" opacity="0.514"/></svg>
